<svg xmlns:xlink="http://www.w3.org/1999/xlink" xmlns="http://www.w3.org/2000/svg" width="40" height="45" viewBox="0 0 40 45" fill="none">
<path d="M37.0281 9.31272L22.2993 0.68417C21.5315 0.235921 20.6613 0 19.7756 0C18.8898 0 18.0196 0.235921 17.2519 0.68417L2.52329 9.31272C1.75688 9.76335 1.12036 10.4102 0.67757 11.1887C0.234776 11.9672 0.00117357 12.8499 0 13.7488V31.0059C0.00149772 31.9047 0.235201 32.7873 0.677963 33.5657C1.12073 34.3441 1.7571 34.991 2.52329 35.4419L17.2519 44.0705C18.0195 44.5193 18.89 44.7553 19.776 44.7545C20.6617 44.7554 21.532 44.5194 22.2993 44.0705L37.0281 35.4419C37.7943 34.9911 38.4307 34.3442 38.8736 33.5658C39.3165 32.7874 39.5503 31.9047 39.5519 31.0059V13.7488C39.5506 12.8499 39.3169 11.9671 38.874 11.1886C38.431 10.4101 37.7946 9.76331 37.0281 9.31272ZM18.539 2.94633C18.9151 2.72611 19.3417 2.61025 19.776 2.61043C20.2099 2.6103 20.6361 2.72583 21.0121 2.94548L35.691 11.5454L29.0225 15.4527L13.1074 6.1287L18.539 2.94633ZM19.776 20.8695L3.86093 11.5454L10.5326 7.63651L26.4477 16.9614L19.776 20.8695ZM3.81099 33.1798C3.43536 32.9589 3.1234 32.642 2.90632 32.2605C2.68923 31.879 2.57473 31.4464 2.57402 31.0059V13.8076L18.4883 23.1317V41.7756L3.81099 33.1798ZM35.7409 33.1798L21.0621 41.7756V23.1284L27.7267 19.2236V22.7042C26.0366 24.0211 24.7968 25.8436 24.1829 27.9142C23.4782 30.1796 23.6346 32.2547 24.6124 33.608C24.9223 34.0457 25.3317 34.4011 25.8059 34.6439C26.28 34.8868 26.8049 35.01 27.336 35.0031C29.9261 35.0031 32.7225 32.2931 33.8404 28.6996C34.5451 26.4342 34.3879 24.3575 33.4102 23.005C33.1005 22.5672 32.6913 22.2118 32.2172 21.9691C31.7431 21.7263 31.2183 21.6034 30.6873 21.6107C30.5584 21.6107 30.4286 21.623 30.299 21.6361V17.7133L36.974 13.8019V31.0002C36.9746 31.4412 36.861 31.8747 36.6446 32.2573C36.4282 32.6398 36.1166 32.9579 35.7409 33.1798ZM30.6904 24.2259C30.8166 24.2187 30.9424 24.2451 31.0554 24.3024C31.1684 24.3598 31.2648 24.4461 31.3348 24.5529C31.6883 25.0432 31.9146 26.2176 31.3863 27.9175C30.589 30.4796 28.5908 32.3936 27.3368 32.3936C27.2106 32.4008 27.0849 32.3745 26.9719 32.3171C26.8588 32.2598 26.7626 32.1734 26.6926 32.0667C26.3391 31.5763 26.1134 30.402 26.6417 28.7029C27.4382 26.1408 29.4381 24.2259 30.6904 24.2259Z" fill="#E20613"/>
</svg>